<?xml version="1.0" encoding="iso-8859-1"?>
<!-- Generator: Adobe Illustrator 18.1.1, SVG Export Plug-In . SVG Version: 6.00 Build 0)  -->
<svg version="1.1" id="Capa_1" xmlns="http://www.w3.org/2000/svg"  x="0px" y="0px"
	 viewBox="0 0 462.672 462.672" style="enable-background:new 0 0 462.672 462.672;" xml:space="preserve">
<g>
	<g>
		<path style="fill:#010002;" d="M167.689,395.964c13.872,0,26.826-2.649,38.862-7.956c12.036-5.304,22.542-12.441,31.519-21.42
			c8.975-8.976,16.014-19.479,21.113-31.518c5.1-12.036,7.648-24.99,7.648-38.862c0-13.464-2.551-26.214-7.648-38.25
			c-5.102-12.036-12.141-22.542-21.113-31.518c-8.977-8.976-19.482-16.116-31.519-21.42c-12.036-5.304-24.99-7.956-38.862-7.956
			c-13.464,0-26.214,2.652-38.25,7.956s-22.542,12.444-31.518,21.42c-8.976,8.976-16.116,19.48-21.42,31.518
			c-5.304,12.036-7.956,24.786-7.956,38.25c0,13.872,2.652,26.826,7.956,38.862s12.444,22.542,21.42,31.518
			c8.976,8.979,19.482,16.116,31.518,21.42C141.475,393.313,154.225,395.964,167.689,395.964z M460.837,79.56l-0.609-0.612v85.068
			c0,8.568-3.063,15.912-9.184,22.032c-6.119,6.12-13.668,9.18-22.643,9.18c-8.568,0-16.32-3.06-23.256-9.18
			c-6.121-6.12-9.184-13.464-9.184-22.032v-53.244l-91.188,91.188c9.385,13.464,16.627,28.152,21.727,44.064
			c5.102,15.912,7.65,32.64,7.65,50.184c0,22.851-4.387,44.37-13.158,64.566c-8.771,20.193-20.707,37.842-35.803,52.938
			c-15.096,15.099-32.742,27.03-52.938,35.805c-20.196,8.771-41.718,13.155-64.566,13.155c-22.848,0-44.37-4.386-64.566-13.155
			c-20.196-8.772-37.842-20.706-52.938-35.805c-15.096-15.096-26.928-32.742-35.496-52.938c-8.566-20.196-12.85-41.717-12.85-64.566
			c0-22.848,4.284-44.37,12.852-64.566s20.4-37.74,35.496-52.632s32.742-26.724,52.938-35.496s41.718-13.158,64.566-13.158
			c17.136,0,33.252,2.346,48.348,7.038c15.096,4.692,29.171,11.322,42.23,19.89l-0.611-0.612l93.021-92.412h-53.854
			c-8.979,0-16.32-3.264-22.033-9.792c-3.264-2.856-5.609-6.222-7.037-10.098s-2.143-8.058-2.143-12.546
			c0-8.976,3.061-16.524,9.18-22.644C280.093,3.06,287.436,0,296.821,0h78.336h20.195h65.483L460.837,79.56L460.837,79.56z"/>
	</g>
</g>
<g>
</g>
<g>
</g>
<g>
</g>
<g>
</g>
<g>
</g>
<g>
</g>
<g>
</g>
<g>
</g>
<g>
</g>
<g>
</g>
<g>
</g>
<g>
</g>
<g>
</g>
<g>
</g>
<g>
</g>
</svg>
